<mxfile host="Electron" agent="Mozilla/5.0 (Windows NT 10.0; Win64; x64) AppleWebKit/537.36 (KHTML, like Gecko) draw.io/26.2.2 Chrome/134.0.6998.178 Electron/35.1.2 Safari/537.36" version="26.2.2">
  <diagram name="Page-1" id="e7e014a7-5840-1c2e-5031-d8a46d1fe8dd">
    <mxGraphModel dx="1190" dy="701" grid="1" gridSize="10" guides="1" tooltips="1" connect="1" arrows="1" fold="1" page="1" pageScale="1" pageWidth="1169" pageHeight="1800" background="none" math="0" shadow="0">
      <root>
        <mxCell id="0" />
        <mxCell id="1" parent="0" />
        <mxCell id="F_n4evBOp1gzA66uCsy6-42" value="" style="ellipse;html=1;shape=startState;fillColor=#000000;strokeColor=#ff0000;" vertex="1" parent="1">
          <mxGeometry x="570" y="70" width="30" height="30" as="geometry" />
        </mxCell>
        <mxCell id="F_n4evBOp1gzA66uCsy6-43" value="" style="edgeStyle=orthogonalEdgeStyle;html=1;verticalAlign=bottom;endArrow=open;endSize=8;strokeColor=#ff0000;rounded=0;entryX=0.5;entryY=0;entryDx=0;entryDy=0;" edge="1" source="F_n4evBOp1gzA66uCsy6-42" parent="1" target="F_n4evBOp1gzA66uCsy6-45">
          <mxGeometry relative="1" as="geometry">
            <mxPoint x="585" y="180" as="targetPoint" />
          </mxGeometry>
        </mxCell>
        <mxCell id="F_n4evBOp1gzA66uCsy6-48" style="edgeStyle=orthogonalEdgeStyle;rounded=0;orthogonalLoop=1;jettySize=auto;html=1;exitX=0;exitY=0.5;exitDx=0;exitDy=0;entryX=1;entryY=0.5;entryDx=0;entryDy=0;" edge="1" parent="1" source="F_n4evBOp1gzA66uCsy6-45" target="F_n4evBOp1gzA66uCsy6-47">
          <mxGeometry relative="1" as="geometry" />
        </mxCell>
        <mxCell id="F_n4evBOp1gzA66uCsy6-51" value="OAuth" style="edgeLabel;html=1;align=center;verticalAlign=middle;resizable=0;points=[];" vertex="1" connectable="0" parent="F_n4evBOp1gzA66uCsy6-48">
          <mxGeometry x="-0.1296" y="-1" relative="1" as="geometry">
            <mxPoint as="offset" />
          </mxGeometry>
        </mxCell>
        <mxCell id="F_n4evBOp1gzA66uCsy6-99" style="edgeStyle=orthogonalEdgeStyle;rounded=0;orthogonalLoop=1;jettySize=auto;html=1;exitX=1;exitY=0.5;exitDx=0;exitDy=0;entryX=0;entryY=0.5;entryDx=0;entryDy=0;" edge="1" parent="1" source="F_n4evBOp1gzA66uCsy6-45" target="F_n4evBOp1gzA66uCsy6-98">
          <mxGeometry relative="1" as="geometry" />
        </mxCell>
        <mxCell id="F_n4evBOp1gzA66uCsy6-101" value="Direct" style="edgeLabel;html=1;align=center;verticalAlign=middle;resizable=0;points=[];" vertex="1" connectable="0" parent="F_n4evBOp1gzA66uCsy6-99">
          <mxGeometry y="1" relative="1" as="geometry">
            <mxPoint as="offset" />
          </mxGeometry>
        </mxCell>
        <mxCell id="F_n4evBOp1gzA66uCsy6-45" value="Pick Login/Register Method" style="rhombus;whiteSpace=wrap;html=1;fillColor=#fff2cc;strokeColor=#d6b656;" vertex="1" parent="1">
          <mxGeometry x="532.5" y="160" width="105" height="80" as="geometry" />
        </mxCell>
        <mxCell id="F_n4evBOp1gzA66uCsy6-76" style="edgeStyle=orthogonalEdgeStyle;rounded=0;orthogonalLoop=1;jettySize=auto;html=1;exitX=0.5;exitY=1;exitDx=0;exitDy=0;entryX=0.5;entryY=0;entryDx=0;entryDy=0;" edge="1" parent="1" source="F_n4evBOp1gzA66uCsy6-47" target="F_n4evBOp1gzA66uCsy6-56">
          <mxGeometry relative="1" as="geometry" />
        </mxCell>
        <mxCell id="F_n4evBOp1gzA66uCsy6-47" value="Login with OAuth Provider" style="rounded=0;whiteSpace=wrap;html=1;fillColor=#dae8fc;strokeColor=#6c8ebf;" vertex="1" parent="1">
          <mxGeometry x="345" y="185" width="120" height="30" as="geometry" />
        </mxCell>
        <mxCell id="F_n4evBOp1gzA66uCsy6-64" style="edgeStyle=orthogonalEdgeStyle;rounded=0;orthogonalLoop=1;jettySize=auto;html=1;exitX=0.5;exitY=1;exitDx=0;exitDy=0;entryX=0.5;entryY=0;entryDx=0;entryDy=0;" edge="1" parent="1" source="F_n4evBOp1gzA66uCsy6-56" target="F_n4evBOp1gzA66uCsy6-63">
          <mxGeometry relative="1" as="geometry" />
        </mxCell>
        <mxCell id="F_n4evBOp1gzA66uCsy6-56" value="Receive Access Token from OAuth Provider" style="html=1;whiteSpace=wrap;fillColor=#dae8fc;strokeColor=#6c8ebf;" vertex="1" parent="1">
          <mxGeometry x="345" y="230" width="120" height="50" as="geometry" />
        </mxCell>
        <mxCell id="F_n4evBOp1gzA66uCsy6-67" style="edgeStyle=orthogonalEdgeStyle;rounded=0;orthogonalLoop=1;jettySize=auto;html=1;exitX=0.5;exitY=1;exitDx=0;exitDy=0;entryX=0.5;entryY=0;entryDx=0;entryDy=0;" edge="1" parent="1" source="F_n4evBOp1gzA66uCsy6-63" target="F_n4evBOp1gzA66uCsy6-68">
          <mxGeometry relative="1" as="geometry">
            <mxPoint x="405" y="503" as="targetPoint" />
          </mxGeometry>
        </mxCell>
        <mxCell id="F_n4evBOp1gzA66uCsy6-63" value="Send Access Token to Backend" style="rounded=0;whiteSpace=wrap;html=1;fillColor=#dae8fc;strokeColor=#6c8ebf;" vertex="1" parent="1">
          <mxGeometry x="345" y="290" width="120" height="40" as="geometry" />
        </mxCell>
        <mxCell id="F_n4evBOp1gzA66uCsy6-80" style="edgeStyle=orthogonalEdgeStyle;rounded=0;orthogonalLoop=1;jettySize=auto;html=1;exitX=0.5;exitY=1;exitDx=0;exitDy=0;entryX=0.5;entryY=0;entryDx=0;entryDy=0;" edge="1" parent="1" source="F_n4evBOp1gzA66uCsy6-68" target="F_n4evBOp1gzA66uCsy6-75">
          <mxGeometry relative="1" as="geometry" />
        </mxCell>
        <mxCell id="F_n4evBOp1gzA66uCsy6-83" value="Good Token" style="edgeLabel;html=1;align=center;verticalAlign=middle;resizable=0;points=[];" vertex="1" connectable="0" parent="F_n4evBOp1gzA66uCsy6-80">
          <mxGeometry x="-0.2167" y="-2" relative="1" as="geometry">
            <mxPoint as="offset" />
          </mxGeometry>
        </mxCell>
        <mxCell id="F_n4evBOp1gzA66uCsy6-91" style="edgeStyle=orthogonalEdgeStyle;rounded=0;orthogonalLoop=1;jettySize=auto;html=1;exitX=1;exitY=0.5;exitDx=0;exitDy=0;" edge="1" parent="1" source="F_n4evBOp1gzA66uCsy6-68" target="F_n4evBOp1gzA66uCsy6-92">
          <mxGeometry relative="1" as="geometry">
            <mxPoint x="525" y="389.8333333333335" as="targetPoint" />
          </mxGeometry>
        </mxCell>
        <mxCell id="F_n4evBOp1gzA66uCsy6-93" value="Bad Token" style="edgeLabel;html=1;align=center;verticalAlign=middle;resizable=0;points=[];" vertex="1" connectable="0" parent="F_n4evBOp1gzA66uCsy6-91">
          <mxGeometry x="-0.0833" y="-1" relative="1" as="geometry">
            <mxPoint as="offset" />
          </mxGeometry>
        </mxCell>
        <mxCell id="F_n4evBOp1gzA66uCsy6-68" value="Backend Verifies Token" style="rhombus;whiteSpace=wrap;html=1;fillColor=#fff2cc;strokeColor=#d6b656;" vertex="1" parent="1">
          <mxGeometry x="335" y="350" width="140" height="80" as="geometry" />
        </mxCell>
        <mxCell id="F_n4evBOp1gzA66uCsy6-85" style="edgeStyle=orthogonalEdgeStyle;rounded=0;orthogonalLoop=1;jettySize=auto;html=1;exitX=0.5;exitY=1;exitDx=0;exitDy=0;entryX=0.5;entryY=0;entryDx=0;entryDy=0;" edge="1" parent="1" source="F_n4evBOp1gzA66uCsy6-75" target="F_n4evBOp1gzA66uCsy6-84">
          <mxGeometry relative="1" as="geometry" />
        </mxCell>
        <mxCell id="F_n4evBOp1gzA66uCsy6-86" value="Doesn&#39;t exist" style="edgeLabel;html=1;align=center;verticalAlign=middle;resizable=0;points=[];" vertex="1" connectable="0" parent="F_n4evBOp1gzA66uCsy6-85">
          <mxGeometry x="-0.1476" y="-1" relative="1" as="geometry">
            <mxPoint as="offset" />
          </mxGeometry>
        </mxCell>
        <mxCell id="F_n4evBOp1gzA66uCsy6-96" style="edgeStyle=orthogonalEdgeStyle;rounded=0;orthogonalLoop=1;jettySize=auto;html=1;exitX=1;exitY=0.5;exitDx=0;exitDy=0;entryX=0;entryY=0.5;entryDx=0;entryDy=0;" edge="1" parent="1" source="F_n4evBOp1gzA66uCsy6-75" target="F_n4evBOp1gzA66uCsy6-95">
          <mxGeometry relative="1" as="geometry" />
        </mxCell>
        <mxCell id="F_n4evBOp1gzA66uCsy6-97" value="Exists" style="edgeLabel;html=1;align=center;verticalAlign=middle;resizable=0;points=[];" vertex="1" connectable="0" parent="F_n4evBOp1gzA66uCsy6-96">
          <mxGeometry x="-0.2754" relative="1" as="geometry">
            <mxPoint as="offset" />
          </mxGeometry>
        </mxCell>
        <mxCell id="F_n4evBOp1gzA66uCsy6-75" value="Backend Checks Database for E-Mail" style="rhombus;whiteSpace=wrap;html=1;fillColor=#fff2cc;strokeColor=#d6b656;" vertex="1" parent="1">
          <mxGeometry x="337.5" y="470" width="135" height="100" as="geometry" />
        </mxCell>
        <mxCell id="F_n4evBOp1gzA66uCsy6-90" style="edgeStyle=orthogonalEdgeStyle;rounded=0;orthogonalLoop=1;jettySize=auto;html=1;exitX=0.5;exitY=1;exitDx=0;exitDy=0;entryX=0.5;entryY=0;entryDx=0;entryDy=0;" edge="1" parent="1" source="F_n4evBOp1gzA66uCsy6-84" target="F_n4evBOp1gzA66uCsy6-88">
          <mxGeometry relative="1" as="geometry" />
        </mxCell>
        <mxCell id="F_n4evBOp1gzA66uCsy6-84" value="Create User" style="rounded=0;whiteSpace=wrap;html=1;fillColor=#dae8fc;strokeColor=#6c8ebf;" vertex="1" parent="1">
          <mxGeometry x="345" y="610" width="120" height="20" as="geometry" />
        </mxCell>
        <mxCell id="F_n4evBOp1gzA66uCsy6-109" style="edgeStyle=orthogonalEdgeStyle;rounded=0;orthogonalLoop=1;jettySize=auto;html=1;exitX=1;exitY=0.5;exitDx=0;exitDy=0;entryX=0.5;entryY=1;entryDx=0;entryDy=0;" edge="1" parent="1" source="F_n4evBOp1gzA66uCsy6-88" target="F_n4evBOp1gzA66uCsy6-95">
          <mxGeometry relative="1" as="geometry" />
        </mxCell>
        <mxCell id="F_n4evBOp1gzA66uCsy6-88" value="Set signedUpWithOAuth flag to true" style="rounded=0;whiteSpace=wrap;html=1;fillColor=#dae8fc;strokeColor=#6c8ebf;" vertex="1" parent="1">
          <mxGeometry x="345" y="650" width="120" height="60" as="geometry" />
        </mxCell>
        <mxCell id="F_n4evBOp1gzA66uCsy6-92" value="" style="ellipse;html=1;shape=endState;fillColor=#000000;strokeColor=#ff0000;" vertex="1" parent="1">
          <mxGeometry x="570" y="375.0033333333335" width="30" height="30" as="geometry" />
        </mxCell>
        <mxCell id="F_n4evBOp1gzA66uCsy6-95" value="Generate JWT Token and send to Frontend" style="rounded=0;whiteSpace=wrap;html=1;fillColor=#d5e8d4;strokeColor=#82b366;" vertex="1" parent="1">
          <mxGeometry x="530" y="500" width="120" height="40" as="geometry" />
        </mxCell>
        <mxCell id="F_n4evBOp1gzA66uCsy6-119" style="edgeStyle=orthogonalEdgeStyle;rounded=0;orthogonalLoop=1;jettySize=auto;html=1;exitX=0.5;exitY=1;exitDx=0;exitDy=0;entryX=0.5;entryY=0;entryDx=0;entryDy=0;" edge="1" parent="1" source="F_n4evBOp1gzA66uCsy6-98" target="F_n4evBOp1gzA66uCsy6-111">
          <mxGeometry relative="1" as="geometry" />
        </mxCell>
        <mxCell id="F_n4evBOp1gzA66uCsy6-98" value="Send Credentials to Backend" style="rounded=0;whiteSpace=wrap;html=1;fillColor=#dae8fc;strokeColor=#6c8ebf;" vertex="1" parent="1">
          <mxGeometry x="710" y="180" width="120" height="40" as="geometry" />
        </mxCell>
        <mxCell id="F_n4evBOp1gzA66uCsy6-120" style="edgeStyle=orthogonalEdgeStyle;rounded=0;orthogonalLoop=1;jettySize=auto;html=1;exitX=1;exitY=0.5;exitDx=0;exitDy=0;entryX=0;entryY=0.5;entryDx=0;entryDy=0;" edge="1" parent="1" source="F_n4evBOp1gzA66uCsy6-111" target="F_n4evBOp1gzA66uCsy6-113">
          <mxGeometry relative="1" as="geometry" />
        </mxCell>
        <mxCell id="F_n4evBOp1gzA66uCsy6-122" value="Doesn&#39;t Exist" style="edgeLabel;html=1;align=center;verticalAlign=middle;resizable=0;points=[];" vertex="1" connectable="0" parent="F_n4evBOp1gzA66uCsy6-120">
          <mxGeometry x="-0.027" relative="1" as="geometry">
            <mxPoint as="offset" />
          </mxGeometry>
        </mxCell>
        <mxCell id="F_n4evBOp1gzA66uCsy6-124" style="edgeStyle=orthogonalEdgeStyle;rounded=0;orthogonalLoop=1;jettySize=auto;html=1;exitX=0.5;exitY=1;exitDx=0;exitDy=0;entryX=0.5;entryY=0;entryDx=0;entryDy=0;" edge="1" parent="1" source="F_n4evBOp1gzA66uCsy6-111" target="F_n4evBOp1gzA66uCsy6-123">
          <mxGeometry relative="1" as="geometry" />
        </mxCell>
        <mxCell id="F_n4evBOp1gzA66uCsy6-125" value="Exists" style="edgeLabel;html=1;align=center;verticalAlign=middle;resizable=0;points=[];" vertex="1" connectable="0" parent="F_n4evBOp1gzA66uCsy6-124">
          <mxGeometry x="-0.3037" y="1" relative="1" as="geometry">
            <mxPoint as="offset" />
          </mxGeometry>
        </mxCell>
        <mxCell id="F_n4evBOp1gzA66uCsy6-111" value="Backend Checks Database for E-Mail" style="rhombus;whiteSpace=wrap;html=1;fillColor=#fff2cc;strokeColor=#d6b656;" vertex="1" parent="1">
          <mxGeometry x="702.5" y="240" width="135" height="100" as="geometry" />
        </mxCell>
        <mxCell id="F_n4evBOp1gzA66uCsy6-117" style="edgeStyle=orthogonalEdgeStyle;rounded=0;orthogonalLoop=1;jettySize=auto;html=1;exitX=0.5;exitY=1;exitDx=0;exitDy=0;entryX=0.5;entryY=0;entryDx=0;entryDy=0;" edge="1" parent="1" source="F_n4evBOp1gzA66uCsy6-113" target="F_n4evBOp1gzA66uCsy6-114">
          <mxGeometry relative="1" as="geometry" />
        </mxCell>
        <mxCell id="F_n4evBOp1gzA66uCsy6-113" value="Create User" style="rounded=0;whiteSpace=wrap;html=1;fillColor=#dae8fc;strokeColor=#6c8ebf;" vertex="1" parent="1">
          <mxGeometry x="930" y="280" width="120" height="20" as="geometry" />
        </mxCell>
        <mxCell id="F_n4evBOp1gzA66uCsy6-129" style="edgeStyle=orthogonalEdgeStyle;rounded=0;orthogonalLoop=1;jettySize=auto;html=1;exitX=0.5;exitY=1;exitDx=0;exitDy=0;entryX=1;entryY=0.5;entryDx=0;entryDy=0;" edge="1" parent="1" source="F_n4evBOp1gzA66uCsy6-114" target="F_n4evBOp1gzA66uCsy6-95">
          <mxGeometry relative="1" as="geometry" />
        </mxCell>
        <mxCell id="F_n4evBOp1gzA66uCsy6-114" value="Set signedUpWithOAuth flag to false" style="rounded=0;whiteSpace=wrap;html=1;fillColor=#dae8fc;strokeColor=#6c8ebf;" vertex="1" parent="1">
          <mxGeometry x="930" y="315" width="120" height="60" as="geometry" />
        </mxCell>
        <mxCell id="F_n4evBOp1gzA66uCsy6-126" style="edgeStyle=orthogonalEdgeStyle;rounded=0;orthogonalLoop=1;jettySize=auto;html=1;exitX=0;exitY=0.5;exitDx=0;exitDy=0;entryX=1;entryY=0.5;entryDx=0;entryDy=0;" edge="1" parent="1" source="F_n4evBOp1gzA66uCsy6-123" target="F_n4evBOp1gzA66uCsy6-92">
          <mxGeometry relative="1" as="geometry" />
        </mxCell>
        <mxCell id="F_n4evBOp1gzA66uCsy6-128" value="True" style="edgeLabel;html=1;align=center;verticalAlign=middle;resizable=0;points=[];" vertex="1" connectable="0" parent="F_n4evBOp1gzA66uCsy6-126">
          <mxGeometry x="-0.0185" relative="1" as="geometry">
            <mxPoint as="offset" />
          </mxGeometry>
        </mxCell>
        <mxCell id="F_n4evBOp1gzA66uCsy6-130" style="edgeStyle=orthogonalEdgeStyle;rounded=0;orthogonalLoop=1;jettySize=auto;html=1;exitX=0.5;exitY=1;exitDx=0;exitDy=0;entryX=0.5;entryY=0;entryDx=0;entryDy=0;" edge="1" parent="1" source="F_n4evBOp1gzA66uCsy6-123" target="F_n4evBOp1gzA66uCsy6-95">
          <mxGeometry relative="1" as="geometry" />
        </mxCell>
        <mxCell id="F_n4evBOp1gzA66uCsy6-132" value="False" style="edgeLabel;html=1;align=center;verticalAlign=middle;resizable=0;points=[];" vertex="1" connectable="0" parent="F_n4evBOp1gzA66uCsy6-130">
          <mxGeometry x="-0.0128" y="-1" relative="1" as="geometry">
            <mxPoint as="offset" />
          </mxGeometry>
        </mxCell>
        <mxCell id="F_n4evBOp1gzA66uCsy6-123" value="signedUpWithOAuth ?" style="rhombus;whiteSpace=wrap;html=1;fillColor=#fff2cc;strokeColor=#d6b656;" vertex="1" parent="1">
          <mxGeometry x="690" y="360" width="160" height="60" as="geometry" />
        </mxCell>
      </root>
    </mxGraphModel>
  </diagram>
</mxfile>
